<svg width="148" height="20" viewBox="0 0 148 20" fill="none" xmlns="http://www.w3.org/2000/svg">
<path d="M4.12 1.62C4.78667 1.62 5.29333 1.7 5.64 1.86C5.98667 2.00667 6.29333 2.17333 6.56 2.36C6.72 2.45333 6.84667 2.52667 6.94 2.58C7.04667 2.62 7.14667 2.64 7.24 2.64C7.37333 2.64 7.46667 2.56667 7.52 2.42C7.58667 2.27333 7.64 2.05333 7.68 1.76H8.14C8.12667 1.98667 8.10667 2.26 8.08 2.58C8.06667 2.88667 8.05333 3.3 8.04 3.82C8.04 4.32667 8.04 5 8.04 5.84H7.58C7.54 5.2 7.4 4.58667 7.16 4C6.92 3.41333 6.56667 2.93333 6.1 2.56C5.64667 2.18667 5.04667 2 4.3 2C3.59333 2 3.00667 2.21333 2.54 2.64C2.08667 3.06667 1.86 3.62667 1.86 4.32C1.86 4.92 2.01333 5.42667 2.32 5.84C2.62667 6.24 3.03333 6.60667 3.54 6.94C4.06 7.26 4.62 7.60667 5.22 7.98C5.91333 8.40667 6.52667 8.83333 7.06 9.26C7.60667 9.67333 8.03333 10.1333 8.34 10.64C8.66 11.1467 8.82 11.76 8.82 12.48C8.82 13.3333 8.62667 14.04 8.24 14.6C7.85333 15.16 7.34 15.58 6.7 15.86C6.06 16.14 5.35333 16.28 4.58 16.28C3.87333 16.28 3.31333 16.2 2.9 16.04C2.48667 15.88 2.13333 15.7133 1.84 15.54C1.54667 15.3533 1.32 15.26 1.16 15.26C1.02667 15.26 0.926667 15.3333 0.86 15.48C0.806667 15.6267 0.76 15.8467 0.72 16.14H0.26C0.286667 15.86 0.3 15.5333 0.3 15.16C0.313333 14.7733 0.32 14.2733 0.32 13.66C0.333333 13.0467 0.34 12.2733 0.34 11.34H0.8C0.853333 12.14 1 12.8867 1.24 13.58C1.49333 14.2733 1.87333 14.8333 2.38 15.26C2.9 15.6733 3.58667 15.88 4.44 15.88C4.88 15.88 5.29333 15.7933 5.68 15.62C6.08 15.4333 6.40667 15.1467 6.66 14.76C6.91333 14.36 7.04 13.8467 7.04 13.22C7.04 12.6733 6.90667 12.2 6.64 11.8C6.38667 11.3867 6.02667 11.0067 5.56 10.66C5.09333 10.3 4.54667 9.93333 3.92 9.56C3.29333 9.17333 2.70667 8.78 2.16 8.38C1.61333 7.98 1.17333 7.52 0.84 7C0.52 6.46667 0.36 5.82667 0.36 5.08C0.36 4.29333 0.533333 3.64667 0.88 3.14C1.24 2.62 1.70667 2.24 2.28 2C2.85333 1.74667 3.46667 1.62 4.12 1.62ZM13.8608 0.699999C14.2074 0.699999 14.5074 0.826666 14.7608 1.08C15.0141 1.33333 15.1408 1.63333 15.1408 1.98C15.1408 2.32667 15.0141 2.62667 14.7608 2.88C14.5074 3.13333 14.2074 3.26 13.8608 3.26C13.5141 3.26 13.2141 3.13333 12.9608 2.88C12.7074 2.62667 12.5808 2.32667 12.5808 1.98C12.5808 1.63333 12.7074 1.33333 12.9608 1.08C13.2141 0.826666 13.5141 0.699999 13.8608 0.699999ZM14.9008 5.48V14.14C14.9008 14.7 15.0141 15.08 15.2408 15.28C15.4808 15.48 15.8741 15.58 16.4208 15.58V16C16.1941 15.9867 15.8474 15.9733 15.3808 15.96C14.9274 15.9333 14.4674 15.92 14.0008 15.92C13.5474 15.92 13.0874 15.9333 12.6208 15.96C12.1541 15.9733 11.8074 15.9867 11.5808 16V15.58C12.1274 15.58 12.5141 15.48 12.7408 15.28C12.9808 15.08 13.1008 14.7 13.1008 14.14V7.88C13.1008 7.28 12.9941 6.84 12.7808 6.56C12.5674 6.26667 12.1674 6.12 11.5808 6.12V5.7C12.0074 5.74 12.4208 5.76 12.8208 5.76C13.2074 5.76 13.5741 5.74 13.9208 5.7C14.2808 5.64667 14.6074 5.57333 14.9008 5.48ZM25.2402 5.42C25.7068 5.42 26.1135 5.48667 26.4602 5.62C26.8068 5.75333 27.0935 5.94 27.3202 6.18C27.5735 6.44667 27.7468 6.79333 27.8402 7.22C27.9335 7.64667 27.9802 8.17333 27.9802 8.8V14.14C27.9802 14.7 28.0935 15.08 28.3202 15.28C28.5602 15.48 28.9535 15.58 29.5002 15.58V16C29.2735 15.9867 28.9268 15.9733 28.4602 15.96C27.9935 15.9333 27.5402 15.92 27.1002 15.92C26.6602 15.92 26.2268 15.9333 25.8002 15.96C25.3868 15.9733 25.0735 15.9867 24.8602 16V15.58C25.3402 15.58 25.6802 15.48 25.8802 15.28C26.0802 15.08 26.1802 14.7 26.1802 14.14V8.36C26.1802 7.94667 26.1535 7.56667 26.1002 7.22C26.0468 6.87333 25.9135 6.59333 25.7002 6.38C25.4868 6.16667 25.1402 6.06 24.6602 6.06C24.1402 6.06 23.6735 6.22 23.2602 6.54C22.8602 6.86 22.5402 7.3 22.3002 7.86C22.0735 8.40667 21.9602 9.02 21.9602 9.7V14.14C21.9602 14.7 22.0602 15.08 22.2602 15.28C22.4602 15.48 22.8002 15.58 23.2802 15.58V16C23.0668 15.9867 22.7468 15.9733 22.3202 15.96C21.9068 15.9333 21.4802 15.92 21.0402 15.92C20.6002 15.92 20.1468 15.9333 19.6802 15.96C19.2135 15.9733 18.8668 15.9867 18.6402 16V15.58C19.1868 15.58 19.5735 15.48 19.8002 15.28C20.0402 15.08 20.1602 14.7 20.1602 14.14V7.88C20.1602 7.28 20.0535 6.84 19.8402 6.56C19.6268 6.26667 19.2268 6.12 18.6402 6.12V5.7C19.0668 5.74 19.4802 5.76 19.8802 5.76C20.2668 5.76 20.6335 5.74 20.9802 5.7C21.3402 5.64667 21.6668 5.57333 21.9602 5.48V7.84C22.3068 6.97333 22.7802 6.35333 23.3802 5.98C23.9802 5.60667 24.6002 5.42 25.2402 5.42ZM31.2602 5.42C31.7268 5.42 32.1335 5.48667 32.4802 5.62C32.8268 5.75333 33.1135 5.94 33.3402 6.18C33.5935 6.44667 33.7668 6.79333 33.8602 7.22C33.9535 7.64667 34.0002 8.17333 34.0002 8.8V14.14C34.0002 14.7 34.1135 15.08 34.3402 15.28C34.5802 15.48 34.9735 15.58 35.5202 15.58V16C35.2935 15.9867 34.9468 15.9733 34.4802 15.96C34.0135 15.9333 33.5602 15.92 33.1202 15.92C32.6802 15.92 32.2468 15.9333 31.8202 15.96C31.4068 15.9733 31.0935 15.9867 30.8802 16V15.58C31.3602 15.58 31.7002 15.48 31.9002 15.28C32.1002 15.08 32.2002 14.7 32.2002 14.14V8.36C32.2002 7.94667 32.1735 7.56667 32.1202 7.22C32.0668 6.87333 31.9335 6.59333 31.7202 6.38C31.5068 6.16667 31.1602 6.06 30.6802 6.06C30.1602 6.06 29.6935 6.22 29.2802 6.54C28.8802 6.86 28.5602 7.29333 28.3202 7.84C28.0935 8.38667 27.9802 9 27.9802 9.68L27.9202 7.82C28.2802 6.9 28.7668 6.27333 29.3802 5.94C29.9935 5.59333 30.6202 5.42 31.2602 5.42ZM40.7741 5.48V17.76C40.7741 18.3333 40.9407 18.7133 41.2741 18.9C41.6207 19.1 42.0941 19.2 42.6941 19.2V19.62C42.4007 19.6067 41.9941 19.5867 41.4741 19.56C40.9541 19.5467 40.4007 19.54 39.8141 19.54C39.4007 19.54 38.9874 19.5467 38.5741 19.56C38.1741 19.5867 37.8674 19.6067 37.6541 19.62V19.2C38.1341 19.2 38.4741 19.1133 38.6741 18.94C38.8741 18.7667 38.9741 18.44 38.9741 17.96V7.88C38.9741 7.28 38.8674 6.84 38.6541 6.56C38.4407 6.26667 38.0407 6.12 37.4541 6.12V5.7C37.8807 5.74 38.2941 5.76 38.6941 5.76C39.0807 5.76 39.4474 5.74 39.7941 5.7C40.1541 5.64667 40.4807 5.57333 40.7741 5.48ZM43.9741 5.42C44.6807 5.42 45.3141 5.61333 45.8741 6C46.4341 6.37333 46.8741 6.92667 47.1941 7.66C47.5274 8.39333 47.6941 9.3 47.6941 10.38C47.6941 11.1 47.6074 11.8133 47.4341 12.52C47.2607 13.2133 46.9874 13.8467 46.6141 14.42C46.2541 14.98 45.7807 15.4333 45.1941 15.78C44.6207 16.1133 43.9274 16.28 43.1141 16.28C42.4874 16.28 41.9407 16.1333 41.4741 15.84C41.0207 15.5467 40.7141 15.1933 40.5541 14.78L40.7541 14.5C40.9407 14.8733 41.2074 15.1867 41.5541 15.44C41.9141 15.6933 42.3607 15.82 42.8941 15.82C43.6407 15.82 44.2207 15.5867 44.6341 15.12C45.0474 14.6533 45.3341 14.0333 45.4941 13.26C45.6674 12.4733 45.7541 11.6067 45.7541 10.66C45.7541 9.59333 45.6674 8.72 45.4941 8.04C45.3207 7.36 45.0607 6.85333 44.7141 6.52C44.3674 6.18667 43.9407 6.02 43.4341 6.02C42.7807 6.02 42.1874 6.29333 41.6541 6.84C41.1207 7.37333 40.7807 8.18667 40.6341 9.28L40.3941 9C40.5407 7.86667 40.9407 6.98667 41.5941 6.36C42.2607 5.73333 43.0541 5.42 43.9741 5.42ZM53.5952 0.319999V14.14C53.5952 14.7 53.7085 15.08 53.9352 15.28C54.1752 15.48 54.5685 15.58 55.1152 15.58V16C54.8885 15.9867 54.5418 15.9733 54.0752 15.96C53.6218 15.9333 53.1618 15.92 52.6952 15.92C52.2418 15.92 51.7818 15.9333 51.3152 15.96C50.8485 15.9733 50.5018 15.9867 50.2752 16V15.58C50.8218 15.58 51.2085 15.48 51.4352 15.28C51.6752 15.08 51.7952 14.7 51.7952 14.14V2.72C51.7952 2.12 51.6885 1.68 51.4752 1.4C51.2618 1.10667 50.8618 0.959999 50.2752 0.959999V0.539999C50.7018 0.579999 51.1152 0.599999 51.5152 0.599999C51.9018 0.599999 52.2685 0.579999 52.6152 0.539999C52.9752 0.486666 53.3018 0.413333 53.5952 0.319999ZM62.0025 5.42C63.1758 5.42 64.0892 5.78 64.7425 6.5C65.4092 7.20667 65.7425 8.31333 65.7425 9.82H58.6825L58.6625 9.44H63.8225C63.8492 8.78667 63.7958 8.18667 63.6625 7.64C63.5292 7.08 63.3158 6.63333 63.0225 6.3C62.7425 5.96667 62.3758 5.8 61.9225 5.8C61.3092 5.8 60.7625 6.10667 60.2825 6.72C59.8158 7.33333 59.5358 8.30667 59.4425 9.64L59.5025 9.72C59.4758 9.92 59.4558 10.14 59.4425 10.38C59.4292 10.62 59.4225 10.86 59.4225 11.1C59.4225 12.0067 59.5692 12.7867 59.8625 13.44C60.1558 14.0933 60.5358 14.5933 61.0025 14.94C61.4825 15.2733 61.9758 15.44 62.4825 15.44C62.8825 15.44 63.2625 15.38 63.6225 15.26C63.9825 15.1267 64.3158 14.9133 64.6225 14.62C64.9292 14.3267 65.1958 13.9333 65.4225 13.44L65.8225 13.6C65.6758 14.04 65.4358 14.4667 65.1025 14.88C64.7692 15.2933 64.3492 15.6333 63.8425 15.9C63.3358 16.1533 62.7492 16.28 62.0825 16.28C61.1225 16.28 60.2958 16.06 59.6025 15.62C58.9225 15.18 58.3958 14.5733 58.0225 13.8C57.6625 13.0133 57.4825 12.1133 57.4825 11.1C57.4825 9.92667 57.6692 8.92 58.0425 8.08C58.4158 7.22667 58.9425 6.57333 59.6225 6.12C60.3025 5.65333 61.0958 5.42 62.0025 5.42ZM84.8802 1.84C84.8268 2.30667 84.7868 2.76 84.7602 3.2C84.7468 3.64 84.7402 3.97333 84.7402 4.2C84.7402 4.44 84.7468 4.67333 84.7602 4.9C84.7735 5.11333 84.7868 5.29333 84.8002 5.44H84.3402C84.2602 4.65333 84.1468 4.03333 84.0002 3.58C83.8535 3.11333 83.6002 2.78667 83.2402 2.6C82.8935 2.4 82.3668 2.3 81.6602 2.3H80.0002C79.5468 2.3 79.2002 2.34 78.9602 2.42C78.7335 2.48667 78.5802 2.64 78.5002 2.88C78.4202 3.10667 78.3802 3.46667 78.3802 3.96V13.88C78.3802 14.36 78.4202 14.72 78.5002 14.96C78.5802 15.2 78.7335 15.36 78.9602 15.44C79.2002 15.5067 79.5468 15.54 80.0002 15.54H81.4602C82.3002 15.54 82.9335 15.4267 83.3602 15.2C83.8002 14.9733 84.1135 14.6067 84.3002 14.1C84.5002 13.58 84.6468 12.88 84.7402 12H85.2002C85.1602 12.36 85.1402 12.84 85.1402 13.44C85.1402 13.6933 85.1468 14.06 85.1602 14.54C85.1868 15.0067 85.2268 15.4933 85.2802 16C84.6002 15.9733 83.8335 15.96 82.9802 15.96C82.1268 15.9467 81.3668 15.94 80.7002 15.94C80.4068 15.94 80.0268 15.94 79.5602 15.94C79.1068 15.94 78.6135 15.9467 78.0802 15.96C77.5468 15.96 77.0068 15.9667 76.4602 15.98C75.9135 15.98 75.3935 15.9867 74.9002 16V15.6C75.3535 15.5733 75.6935 15.52 75.9202 15.44C76.1602 15.36 76.3202 15.2 76.4002 14.96C76.4802 14.72 76.5202 14.36 76.5202 13.88V3.96C76.5202 3.46667 76.4802 3.10667 76.4002 2.88C76.3202 2.64 76.1602 2.48 75.9202 2.4C75.6935 2.30667 75.3535 2.25333 74.9002 2.24V1.84C75.3935 1.85333 75.9135 1.86667 76.4602 1.88C77.0068 1.88 77.5468 1.88667 78.0802 1.9C78.6135 1.9 79.1068 1.9 79.5602 1.9C80.0268 1.9 80.4068 1.9 80.7002 1.9C81.3135 1.9 82.0068 1.9 82.7802 1.9C83.5668 1.88667 84.2668 1.86667 84.8802 1.84ZM81.4402 8.68C81.4402 8.68 81.4402 8.74667 81.4402 8.88C81.4402 9.01333 81.4402 9.08 81.4402 9.08H77.7802C77.7802 9.08 77.7802 9.01333 77.7802 8.88C77.7802 8.74667 77.7802 8.68 77.7802 8.68H81.4402ZM82.0202 6.04C81.9668 6.8 81.9402 7.38 81.9402 7.78C81.9535 8.18 81.9602 8.54667 81.9602 8.88C81.9602 9.21333 81.9668 9.58 81.9802 9.98C81.9935 10.38 82.0268 10.96 82.0802 11.72H81.6202C81.5668 11.2933 81.5002 10.88 81.4202 10.48C81.3535 10.0667 81.1935 9.73333 80.9402 9.48C80.7002 9.21333 80.2868 9.08 79.7002 9.08V8.68C80.1402 8.68 80.4735 8.59333 80.7002 8.42C80.9402 8.23333 81.1135 8 81.2202 7.72C81.3268 7.44 81.4002 7.15333 81.4402 6.86C81.4802 6.55333 81.5202 6.28 81.5602 6.04H82.0202ZM94.7477 5.42C95.2543 5.42 95.6743 5.48667 96.0077 5.62C96.3543 5.75333 96.641 5.94 96.8677 6.18C97.121 6.44667 97.301 6.78 97.4077 7.18C97.5143 7.58 97.5677 8.12 97.5677 8.8V14.14C97.5677 14.7 97.681 15.08 97.9077 15.28C98.1477 15.48 98.541 15.58 99.0877 15.58V16C98.861 15.9867 98.5143 15.9733 98.0477 15.96C97.581 15.9333 97.1277 15.92 96.6877 15.92C96.2477 15.92 95.8143 15.9333 95.3877 15.96C94.9743 15.9733 94.661 15.9867 94.4477 16V15.58C94.9277 15.58 95.2677 15.48 95.4677 15.28C95.6677 15.08 95.7677 14.7 95.7677 14.14V8.36C95.7677 7.94667 95.7343 7.56667 95.6677 7.22C95.601 6.87333 95.4477 6.59333 95.2077 6.38C94.981 6.16667 94.6277 6.06 94.1477 6.06C93.5877 6.06 93.0943 6.22 92.6677 6.54C92.2543 6.86 91.9277 7.3 91.6877 7.86C91.461 8.40667 91.3477 9.02 91.3477 9.7V14.14C91.3477 14.7 91.4477 15.08 91.6477 15.28C91.8477 15.48 92.1877 15.58 92.6677 15.58V16C92.4543 15.9867 92.1343 15.9733 91.7077 15.96C91.2943 15.9333 90.8677 15.92 90.4277 15.92C89.9877 15.92 89.5343 15.9333 89.0677 15.96C88.601 15.9733 88.2543 15.9867 88.0277 16V15.58C88.5743 15.58 88.961 15.48 89.1877 15.28C89.4277 15.08 89.5477 14.7 89.5477 14.14V7.88C89.5477 7.28 89.441 6.84 89.2277 6.56C89.0143 6.26667 88.6143 6.12 88.0277 6.12V5.7C88.4543 5.74 88.8677 5.76 89.2677 5.76C89.6543 5.76 90.021 5.74 90.3677 5.7C90.7277 5.64667 91.0543 5.57333 91.3477 5.48V7.84C91.6943 6.93333 92.1743 6.30667 92.7877 5.96C93.4143 5.6 94.0677 5.42 94.7477 5.42ZM104.646 19.76C103.939 19.76 103.273 19.6867 102.646 19.54C102.019 19.3933 101.513 19.16 101.126 18.84C100.753 18.5333 100.566 18.14 100.566 17.66C100.566 17.1933 100.753 16.7933 101.126 16.46C101.499 16.1267 102.006 15.8733 102.646 15.7L102.766 16.02C102.473 16.1133 102.239 16.3 102.066 16.58C101.893 16.86 101.806 17.1733 101.806 17.52C101.806 18.1333 102.086 18.6 102.646 18.92C103.219 19.2533 103.959 19.42 104.866 19.42C105.466 19.42 106.053 19.34 106.626 19.18C107.199 19.0333 107.673 18.78 108.046 18.42C108.419 18.06 108.606 17.5867 108.606 17C108.606 16.56 108.446 16.2 108.126 15.92C107.819 15.6267 107.206 15.48 106.286 15.48H104.806C104.379 15.48 103.966 15.4467 103.566 15.38C103.166 15.3133 102.839 15.1733 102.586 14.96C102.333 14.7467 102.206 14.42 102.206 13.98C102.206 13.5267 102.393 13.0933 102.766 12.68C103.139 12.2533 103.826 11.82 104.826 11.38L105.066 11.56C104.613 11.8 104.219 12.0467 103.886 12.3C103.553 12.54 103.386 12.8267 103.386 13.16C103.386 13.5867 103.706 13.8 104.346 13.8H106.846C107.406 13.8 107.919 13.88 108.386 14.04C108.866 14.2 109.253 14.4533 109.546 14.8C109.839 15.1467 109.986 15.6 109.986 16.16C109.986 16.7867 109.786 17.3733 109.386 17.92C108.986 18.4667 108.386 18.9067 107.586 19.24C106.799 19.5867 105.819 19.76 104.646 19.76ZM104.746 11.74C104.093 11.74 103.499 11.6333 102.966 11.42C102.433 11.1933 102.013 10.8467 101.706 10.38C101.399 9.91333 101.246 9.31333 101.246 8.58C101.246 7.84667 101.399 7.24667 101.706 6.78C102.013 6.31333 102.433 5.97333 102.966 5.76C103.499 5.53333 104.093 5.42 104.746 5.42C105.413 5.42 106.006 5.53333 106.526 5.76C107.059 5.97333 107.479 6.31333 107.786 6.78C108.093 7.24667 108.246 7.84667 108.246 8.58C108.246 9.31333 108.093 9.91333 107.786 10.38C107.479 10.8467 107.059 11.1933 106.526 11.42C106.006 11.6333 105.413 11.74 104.746 11.74ZM104.746 11.38C105.253 11.38 105.646 11.18 105.926 10.78C106.219 10.38 106.366 9.64667 106.366 8.58C106.366 7.51333 106.219 6.78 105.926 6.38C105.646 5.98 105.253 5.78 104.746 5.78C104.253 5.78 103.859 5.98 103.566 6.38C103.273 6.78 103.126 7.51333 103.126 8.58C103.126 9.64667 103.273 10.38 103.566 10.78C103.859 11.18 104.253 11.38 104.746 11.38ZM107.626 7.08L107.266 6.94C107.453 6.48667 107.773 6.08667 108.226 5.74C108.679 5.39333 109.153 5.22 109.646 5.22C109.993 5.22 110.273 5.32 110.486 5.52C110.699 5.70667 110.806 5.99333 110.806 6.38C110.806 6.79333 110.693 7.08667 110.466 7.26C110.253 7.42 110.033 7.5 109.806 7.5C109.606 7.5 109.419 7.43333 109.246 7.3C109.073 7.15333 108.973 6.92667 108.946 6.62C108.919 6.31333 109.013 5.92 109.226 5.44L109.486 5.5C108.926 5.71333 108.526 5.94 108.286 6.18C108.046 6.40667 107.826 6.70667 107.626 7.08ZM115.912 0.319999V14.14C115.912 14.7 116.026 15.08 116.252 15.28C116.492 15.48 116.886 15.58 117.432 15.58V16C117.206 15.9867 116.859 15.9733 116.392 15.96C115.939 15.9333 115.479 15.92 115.012 15.92C114.559 15.92 114.099 15.9333 113.632 15.96C113.166 15.9733 112.819 15.9867 112.592 16V15.58C113.139 15.58 113.526 15.48 113.752 15.28C113.992 15.08 114.112 14.7 114.112 14.14V2.72C114.112 2.12 114.006 1.68 113.792 1.4C113.579 1.10667 113.179 0.959999 112.592 0.959999V0.539999C113.019 0.579999 113.432 0.599999 113.832 0.599999C114.219 0.599999 114.586 0.579999 114.932 0.539999C115.292 0.486666 115.619 0.413333 115.912 0.319999ZM121.935 0.699999C122.282 0.699999 122.582 0.826666 122.835 1.08C123.088 1.33333 123.215 1.63333 123.215 1.98C123.215 2.32667 123.088 2.62667 122.835 2.88C122.582 3.13333 122.282 3.26 121.935 3.26C121.588 3.26 121.288 3.13333 121.035 2.88C120.782 2.62667 120.655 2.32667 120.655 1.98C120.655 1.63333 120.782 1.33333 121.035 1.08C121.288 0.826666 121.588 0.699999 121.935 0.699999ZM122.975 5.48V14.14C122.975 14.7 123.088 15.08 123.315 15.28C123.555 15.48 123.948 15.58 124.495 15.58V16C124.268 15.9867 123.922 15.9733 123.455 15.96C123.002 15.9333 122.542 15.92 122.075 15.92C121.622 15.92 121.162 15.9333 120.695 15.96C120.228 15.9733 119.882 15.9867 119.655 16V15.58C120.202 15.58 120.588 15.48 120.815 15.28C121.055 15.08 121.175 14.7 121.175 14.14V7.88C121.175 7.28 121.068 6.84 120.855 6.56C120.642 6.26667 120.242 6.12 119.655 6.12V5.7C120.082 5.74 120.495 5.76 120.895 5.76C121.282 5.76 121.648 5.74 121.995 5.7C122.355 5.64667 122.682 5.57333 122.975 5.48ZM130.294 5.42C130.828 5.42 131.281 5.50667 131.654 5.68C132.028 5.85333 132.301 6.01333 132.474 6.16C132.914 6.52 133.181 6.28 133.274 5.44H133.734C133.708 5.81333 133.688 6.26 133.674 6.78C133.661 7.28667 133.654 7.97333 133.654 8.84H133.194C133.114 8.34667 132.974 7.86667 132.774 7.4C132.588 6.93333 132.308 6.55333 131.934 6.26C131.561 5.95333 131.074 5.8 130.474 5.8C130.008 5.8 129.614 5.93333 129.294 6.2C128.988 6.45333 128.834 6.83333 128.834 7.34C128.834 7.74 128.954 8.08667 129.194 8.38C129.434 8.66 129.748 8.92667 130.134 9.18C130.521 9.42 130.941 9.68667 131.394 9.98C131.901 10.3 132.361 10.6267 132.774 10.96C133.188 11.2933 133.514 11.66 133.754 12.06C134.008 12.46 134.134 12.9333 134.134 13.48C134.134 14.0933 133.974 14.6067 133.654 15.02C133.334 15.4333 132.914 15.7467 132.394 15.96C131.888 16.1733 131.328 16.28 130.714 16.28C130.421 16.28 130.141 16.2533 129.874 16.2C129.621 16.16 129.374 16.0933 129.134 16C129.001 15.9333 128.861 15.8533 128.714 15.76C128.581 15.6667 128.448 15.5667 128.314 15.46C128.181 15.3533 128.061 15.36 127.954 15.48C127.848 15.5867 127.768 15.8067 127.714 16.14H127.254C127.281 15.7133 127.301 15.1933 127.314 14.58C127.328 13.9667 127.334 13.1533 127.334 12.14H127.794C127.888 12.8867 128.021 13.54 128.194 14.1C128.368 14.66 128.641 15.1 129.014 15.42C129.388 15.7267 129.908 15.88 130.574 15.88C130.841 15.88 131.108 15.82 131.374 15.7C131.654 15.58 131.888 15.38 132.074 15.1C132.261 14.82 132.354 14.4467 132.354 13.98C132.354 13.3933 132.141 12.9133 131.714 12.54C131.288 12.1667 130.748 11.7733 130.094 11.36C129.614 11.0533 129.161 10.7467 128.734 10.44C128.321 10.1333 127.981 9.78667 127.714 9.4C127.461 9.01333 127.334 8.54667 127.334 8C127.334 7.4 127.468 6.91333 127.734 6.54C128.014 6.15333 128.381 5.87333 128.834 5.7C129.288 5.51333 129.774 5.42 130.294 5.42ZM140 0.339999V7.82C140.346 6.91333 140.826 6.28667 141.44 5.94C142.066 5.59333 142.72 5.42 143.4 5.42C143.906 5.42 144.326 5.48667 144.66 5.62C145.006 5.75333 145.293 5.94 145.52 6.18C145.773 6.44667 145.953 6.78 146.06 7.18C146.166 7.58 146.22 8.12 146.22 8.8V14.14C146.22 14.7 146.333 15.08 146.56 15.28C146.8 15.48 147.193 15.58 147.74 15.58V16C147.513 15.9867 147.166 15.9733 146.7 15.96C146.233 15.9333 145.78 15.92 145.34 15.92C144.9 15.92 144.466 15.9333 144.04 15.96C143.626 15.9733 143.313 15.9867 143.1 16V15.58C143.58 15.58 143.92 15.48 144.12 15.28C144.32 15.08 144.42 14.7 144.42 14.14V8.36C144.42 7.94667 144.386 7.56667 144.32 7.22C144.253 6.87333 144.1 6.59333 143.86 6.38C143.633 6.16667 143.28 6.06 142.8 6.06C142.253 6.06 141.766 6.21333 141.34 6.52C140.926 6.82667 140.6 7.25333 140.36 7.8C140.12 8.34667 140 8.97333 140 9.68V14.14C140 14.7 140.1 15.08 140.3 15.28C140.5 15.48 140.84 15.58 141.32 15.58V16C141.106 15.9867 140.786 15.9733 140.36 15.96C139.946 15.9333 139.52 15.92 139.08 15.92C138.64 15.92 138.186 15.9333 137.72 15.96C137.253 15.9733 136.906 15.9867 136.68 16V15.58C137.226 15.58 137.613 15.48 137.84 15.28C138.08 15.08 138.2 14.7 138.2 14.14V2.74C138.2 2.14 138.093 1.7 137.88 1.42C137.666 1.12667 137.266 0.979999 136.68 0.979999V0.56C137.106 0.599999 137.52 0.619999 137.92 0.619999C138.306 0.619999 138.673 0.599999 139.02 0.56C139.38 0.506666 139.706 0.433333 140 0.339999Z" fill="#333333"/>
</svg>
